/* XPM */
static char * griffon_icon_xpm[] = {
"48 48 220 2",
"  	c None",
". 	c #101010",
"+ 	c #060606",
"@ 	c #040404",
"# 	c #030303",
"$ 	c #010101",
"% 	c #050505",
"& 	c #0C0C0C",
"* 	c #090909",
"= 	c #141414",
"- 	c #292929",
"; 	c #303030",
"> 	c #383838",
", 	c #161616",
"' 	c #1C1C1C",
") 	c #363636",
"! 	c #515151",
"~ 	c #6F6F6F",
"{ 	c #787878",
"] 	c #747474",
"^ 	c #737373",
"/ 	c #727272",
"( 	c #707070",
"_ 	c #535353",
": 	c #373737",
"< 	c #1D1D1D",
"[ 	c #080808",
"} 	c #070707",
"| 	c #020202",
"1 	c #272727",
"2 	c #525252",
"3 	c #676767",
"4 	c #6E6E6E",
"5 	c #6D6D6D",
"6 	c #696969",
"7 	c #4E4E4E",
"8 	c #6B6B6B",
"9 	c #6C6C6C",
"0 	c #111111",
"a 	c #646464",
"b 	c #6A6A6A",
"c 	c #717171",
"d 	c #191919",
"e 	c #626262",
"f 	c #686868",
"g 	c #838383",
"h 	c #959595",
"i 	c #AAAAAA",
"j 	c #C3C3C3",
"k 	c #CDCDCD",
"l 	c #CCCCCC",
"m 	c #B6B6B6",
"n 	c #ABABAB",
"o 	c #949494",
"p 	c #7E7E7E",
"q 	c #666666",
"r 	c #1A1A1A",
"s 	c #0E0E0E",
"t 	c #555555",
"u 	c #656565",
"v 	c #8D8D8D",
"w 	c #B1B1B1",
"x 	c #C6C6C6",
"y 	c #CBCBCB",
"z 	c #CACACA",
"A 	c #D3D3D3",
"B 	c #D7D7D7",
"C 	c #DBDBDB",
"D 	c #DDDDDD",
"E 	c #DEDEDE",
"F 	c #DCDCDC",
"G 	c #D8D8D8",
"H 	c #B5B5B5",
"I 	c #919191",
"J 	c #585858",
"K 	c #0F0F0F",
"L 	c #343434",
"M 	c #636363",
"N 	c #A5A5A5",
"O 	c #DFDFDF",
"P 	c #E5E5E5",
"Q 	c #E6E6E6",
"R 	c #E7E7E7",
"S 	c #E3E3E3",
"T 	c #DADADA",
"U 	c #D5D5D5",
"V 	c #B3B3B3",
"W 	c #0B0B0B",
"X 	c #5A5A5A",
"Y 	c #616161",
"Z 	c #606060",
"` 	c #BFBFBF",
" .	c #CFCFCF",
"..	c #E8E8E8",
"+.	c #A0A0A0",
"@.	c #9F9F9F",
"#.	c #B2B2B2",
"$.	c #9A9A9A",
"%.	c #5C5C5C",
"&.	c #5F5F5F",
"*.	c #5E5E5E",
"=.	c #0A0A0A",
"-.	c #B0B0B0",
";.	c #D0D0D0",
">.	c #D2D2D2",
",.	c #E1E1E1",
"'.	c #C2C2C2",
").	c #C8C8C8",
"!.	c #C7C7C7",
"~.	c #A9A9A9",
"{.	c #ACACAC",
"].	c #808080",
"^.	c #5D5D5D",
"/.	c #212121",
"(.	c #353535",
"_.	c #5B5B5B",
":.	c #D1D1D1",
"<.	c #E9E9E9",
"[.	c #9C9C9C",
"}.	c #C1C1C1",
"|.	c #BDBDBD",
"1.	c #B9B9B9",
"2.	c #C0C0C0",
"3.	c #C5C5C5",
"4.	c #BCBCBC",
"5.	c #E2E2E2",
"6.	c #A3A3A3",
"7.	c #757575",
"8.	c #595959",
"9.	c #3A3A3A",
"0.	c #D9D9D9",
"a.	c #E0E0E0",
"b.	c #D4D4D4",
"c.	c #858585",
"d.	c #818181",
"e.	c #565656",
"f.	c #404040",
"g.	c #909090",
"h.	c #EBEBEB",
"i.	c #505050",
"j.	c #575757",
"k.	c #282828",
"l.	c #D6D6D6",
"m.	c #BEBEBE",
"n.	c #E4E4E4",
"o.	c #777777",
"p.	c #9E9E9E",
"q.	c #0D0D0D",
"r.	c #313131",
"s.	c #CECECE",
"t.	c #2F2F2F",
"u.	c #8A8A8A",
"v.	c #232323",
"w.	c #4B4B4B",
"x.	c #A8A8A8",
"y.	c #3F3F3F",
"z.	c #121212",
"A.	c #898989",
"B.	c #F0F0F0",
"C.	c #8C8C8C",
"D.	c #151515",
"E.	c #EDEDED",
"F.	c #F4F4F4",
"G.	c #C4C4C4",
"H.	c #494949",
"I.	c #484848",
"J.	c #3E3E3E",
"K.	c #333333",
"L.	c #131313",
"M.	c #ECECEC",
"N.	c #BABABA",
"O.	c #929292",
"P.	c #444444",
"Q.	c #434343",
"R.	c #393939",
"S.	c #323232",
"T.	c #252525",
"U.	c #9B9B9B",
"V.	c #171717",
"W.	c #797979",
"X.	c #EFEFEF",
"Y.	c #767676",
"Z.	c #BBBBBB",
"`.	c #4A4A4A",
" +	c #2D2D2D",
".+	c #1B1B1B",
"++	c #989898",
"@+	c #A4A4A4",
"#+	c #EAEAEA",
"$+	c #242424",
"%+	c #4D4D4D",
"&+	c #414141",
"*+	c #C9C9C9",
"=+	c #7B7B7B",
"-+	c #4F4F4F",
";+	c #222222",
">+	c #202020",
",+	c #999999",
"'+	c #B8B8B8",
")+	c #7C7C7C",
"!+	c #2E2E2E",
"~+	c #474747",
"{+	c #454545",
"]+	c #3D3D3D",
"^+	c #AFAFAF",
"/+	c #2C2C2C",
"(+	c #262626",
"_+	c #1F1F1F",
":+	c #181818",
"<+	c #A1A1A1",
"[+	c #2B2B2B",
"}+	c #1E1E1E",
"|+	c #2A2A2A",
"1+	c #A7A7A7",
"2+	c #848484",
"3+	c #A6A6A6",
"4+	c #3B3B3B",
"5+	c #424242",
"6+	c #3C3C3C",
"7+	c #4C4C4C",
"                                                                                                ",
"                                                                                                ",
"                                                                                                ",
"                                      . + @ # $ $ # @ % .                                       ",
"                                & * + * = - ; > > ; - , * % + &                                 ",
"                            % + ' ) ! ~ { ] ^ ^ / ^ ^ { ( _ : < [ }                             ",
"                        & | 1 2 3 ^ ( 4 4 4 4 4 4 4 4 5 4 ( / 6 _ - # %                         ",
"                      + + 7 8 8 9 8 9 5 8 8 8 8 9 8 8 8 8 8 8 8 8 8 ! + #                       ",
"                    % 0 a 9 b b b 8 4 c / / / / ~ 4 8 6 6 6 6 6 6 6 8 a = $                     ",
"                  + d e b f a ~ g h i j k l l k m n o p ( e q q 3 3 f 6 q r $                   ",
"                @ s t f q u v w x y z A B C D D E F G x H I a u u u u u 3 J K |                 ",
"              # % L 3 a M N y z l O P P Q R R R S x T T O U V a e M e e M q > @ #               ",
"            } # W X Y Z `  .l G Q ..R ..R R Q Q Q ......+.@.#.$.%.&.&.*.&.Z Z W | =.            ",
"            @ # ' q Y -.;.>.,.E '.).z x z l k l >.!.l ~.#.{.].].%.X %.^.^.^.a /.| #             ",
"          } # @ (._.$.:.>.S <.A [.}.|.1.|.}.'.2.3.4.|.;.T 5.F '.6.7.J 8.8.X *.9.| $ *           ",
"          $ % % : 4 '.>.P R R ..m 0.R P P P ..R a.4.b.{.+._.c.}.P !.d.e.e.e.X f.@ # |           ",
"        =.# + [ (.g.T a.R R Q Q P H l 5.,.E m #.-.h.P R a.7.J i.] !.0.].t _ j.9.+ @ | %         ",
"        # @ } =.k.'.T Q R Q Q P Q <.l.m.m.'.Q ....n.P P P G [.d.o.g :.E p.*.! /.* + # #         ",
"        | % * q.r.P a.R Q Q P Q Q Q Q R R R P P P P n.S S n...n.D D ,.,.F ` g.! K * @ $ 0       ",
"      W # + W & *.Q S Q Q Q P P P P P n.P P P n.n.n.S 5.5.5.S 5.,.,.a.a.O E 0.s.|.t.| | [       ",
"      | @ } q.W u.Q n.Q P ,.Q P n.P P n.P P n.n.S 5.5.S S 5.5.,.a.O O O D D F F  .v.@ @ $       ",
"      @ % * s =.:.S P Q D O P n.P P P P n.S n.S 5.S S 5.5.,.a.a.O O E a.a.D C T >.w.@ % |       ",
"      % } =.K & l.n.Q ..-.h.n.P P n.P P S S S 5.S S 5.5.,.a.a.O E Q R #.x.!.,.0. .y.+ + @       ",
"      % } & z.s B Q P <.A.B.n.P n.P n.n.,.T P 5.5.,.,.,.a.O E E O c 2 y.> L C.U  .D.=.} #       ",
"      % [ q.z.. G Q n.E.J F.n.P P E T 5.S l j 5.5.a.,.a.E D a.G.H.I.J.> K.k.&.A { * q.} @       ",
"      + * s = L.}...n.M.Z P P n.S D >.,.5.Q #.N.D n.O E D D 5.O.P.Q.y.R.S.T./ U.0 L.q.[ @       ",
"      } =.K D.V.W.X.n.h.Y.Z.Q S S a.N.5.5.5.S |.].G.P Q n.S 5.).c `.K.t.H.b Y  +r = s * +       ",
"      + =.K D..+K.h.P ..++d.h.5.S 5.m.).5.a.n.B t Y *.@+i n 6.#+,. .).).l I $+v..+= s * %       ",
"      + =.K D..+1 [.<.n.s.M y S 5.5.F v R a.O ,.2 j.j.! 7 %+`.&+%+!.G l.*+y.1 v..+D.s * +       ",
"      = * K = .+/.i.B S E g =+O 5.a.O ;.v ` a.n.I %+_ 2 -+%+`.I.&+^ a.;.~ k.- ;+.+= q.[ .       ",
"        * s L.d >+T.Y P P ;.8 c.a.,.O F !.,+A.'+a.].w.7 w.`.I.P.y.)+T q !+t.k.;+r L.& }         ",
"        s q.0 V.< $+- j. .Q U Y a G ,.D C A 4.8 ! 5 u H.`.~+{+]+f ^+X ) S./+(+_+:+0 W W         ",
"        0 q.z.D..+;+- /+: #.E b.g I.<+>.0.C 0.l.j h _.%+{+Q.P.Z -+S.) (.; [+$+< , 0 W z.        ",
"          s , z.:+}+T.|+!+[+Y 1+j ^+6 8 C.'+G.T D F A {.u Q.]+R.R.> ) S. +k.>+:+, L.q.          ",
"          , z./.L..+/.1 /+; t.L ! 8 d.2+9 H._.( ^ c.3+E 3.9 (.R.: ) K.!+|+v.' < .+s D.          ",
"            . /./.D.' ;+1  +; K.(.: 4+&+5+6+]+]+]+y.&+7+x x.f.) (.S.t.|+$+>+/./.= &             ",
"              q./+/.:+' v.1 [+!+; L (.) > > R.R.R.R.R.(.w.|.w.S.; !+|+(+T.T.;+d q.              ",
"              = K [+T.r < /.(+- /+!+; r.K.K.L L L L K.K.> u.H.!+ +|+k.T.;+/..+s D.              ",
"                D.L.|+[+_+< _+v.1 - [+ +t.t.; r.r.; t.t.L f K.|+k.T._+' ;+}+s V.                ",
"                  V.0 - L - /._+/.v.T.1 k.|+|+|+|+|+|+|+ +-+v.$+}+.+;+[+;+K D.                  ",
"                    z.K /.: ) !+(+;+/.;+;+v.$+T.$+$+$+v.;+_+>+>+$+t.t.< q.L.                    ",
"                        z.:+!+]+y.9.K. +- 1 (+T.$+$+T.1 k./+r.> ) - , s D.                      ",
"                          0 0 r /+J.~+~+{+5+y.J.J.J.J.y.f.f.9.- d . =                           ",
"                              = . z.'  +4+P.H.`.`.~+5+9./+.+0 K =                               ",
"                                  = 0 & W s 0 z.z.0 s W & 0 0                                   ",
"                                            :+V.V.:+                                            ",
"                                                                                                ",
"                                                                                                "};
